<svg width="239" height="48" viewBox="0 0 239 48" fill="none" xmlns="http://www.w3.org/2000/svg">
<path d="M48.6369 18.0971C46.1825 15.9689 41.9262 13.6544 35.3087 14.2136C29.6388 4.8466 21.1107 1.35146 20.7379 1.19612L17.7553 0V10.0816C11.4485 11.0291 6.43107 16.0311 5.48349 22.3534H0V24.5282C0 32.5748 6.55534 39.1301 14.6019 39.1301V34.7806C9.6932 34.7806 5.5767 31.3165 4.58252 26.7029H9.67767V24.5282C9.67767 18.8738 14.2757 14.2757 19.9301 14.2757H22.1049V6.85049C24.5437 8.38835 28.0233 11.1068 30.866 15.3165C29.1728 16.0777 27.4796 17.1806 25.9262 18.5631C23.4097 20.8155 21.499 23.6272 20.5359 26.4854C18.3767 32.9786 19.5417 37.2971 20.8932 39.767C22.1825 42.1282 24.233 43.8058 26.5165 44.3806C27.3398 44.5825 28.1631 44.6913 28.9709 44.6913C30.9126 44.6913 32.7922 44.101 34.4233 42.967C36.5515 41.4757 39.2078 38.3379 39.8602 31.8447C40.2641 27.8214 39.3476 22.7262 37.5456 18.4854C40.8233 18.5476 43.6349 19.5262 45.7942 21.3903C48.5281 23.767 50.1592 27.5884 50.1592 31.6272V33.8019H55.7515C55.3476 36.2718 54.2291 38.5087 52.5204 40.233C50.3301 42.4233 47.2854 43.6505 43.9612 43.6505C43.0913 43.6505 41.367 43.4641 40.4349 42.9981L38.4932 46.8816C40.668 47.9689 43.6349 48 43.9612 48C53.266 48 60.2718 40.9631 60.2718 31.6272V29.4524H54.3845C53.8874 24.9476 51.8524 20.8932 48.6369 18.0971ZM35.5107 31.3942C35.1379 35.1845 33.8485 38.0272 31.8913 39.3942C30.2913 40.5126 28.6447 40.435 27.5417 40.1553C26.4544 39.8913 25.3825 38.9592 24.6835 37.6699C23.3476 35.2466 23.332 31.767 24.6369 27.8524C26.0194 23.7204 29.7786 20.3806 33.0408 19.0913C34.8738 22.8505 35.8835 27.7592 35.5107 31.3942Z" fill="#111D5E"/>
<path d="M200.637 14.7883L192.497 36.2873L185.507 18.2834V18.2679C184.155 15.6116 182.384 12.6912 178.299 11.666C177.227 11.4019 176.186 11.2621 175.177 11.2621C172.365 11.2621 170.377 12.3495 169.212 13.2504C167.145 14.866 166.058 17.1495 166.058 18.5475V18.8582H169.491L169.538 18.5941C169.662 17.8951 170.392 16.7922 171.712 16.0776C172.551 15.6271 173.561 15.3941 174.742 15.3941C175.549 15.3941 176.404 15.5029 177.289 15.7203C179.417 16.2485 180.38 17.5223 181.639 19.9766L181.67 20.0388L190.602 41.4912H194.252L205.095 14.7728H200.637V14.7883Z" fill="#111D5E"/>
<path d="M177.802 22.5088C176.684 21.6544 175.503 21.437 174.726 21.4059H174.711C172.318 21.4525 170.687 22.9904 169.429 24.7146V22.1515L165.965 22.167V42.3768H169.786V29.1418C169.973 28.8777 170.159 28.5826 170.361 28.2719C171.355 26.7185 172.598 24.7923 174.12 24.7923C174.276 24.7923 174.478 24.8078 174.664 24.8389C175.099 24.9321 176.264 25.1496 176.73 26.8738L176.808 27.169L180.101 26.268L180.023 25.9729C179.604 24.4816 178.858 23.3166 177.802 22.5088Z" fill="#111D5E"/>
<path d="M139.029 37.1573C138.905 37.5301 138.377 38.7729 136.482 38.7729C135.705 38.7263 134.431 38.369 134.431 36.567V25.3981H139.449V22.136H134.431V16.4661H130.61V22.136H119.876V16.4661H116.054V22.136H112.373V25.3981H116.054V36.5826C116.054 38.4777 116.691 40 117.887 40.9787C118.85 41.7709 120.171 42.2059 121.6 42.2059C121.755 42.2059 122.128 42.2059 122.221 42.2059H122.252C125.406 42.0661 127.146 40.0466 127.736 38.1981L127.829 37.903L124.567 36.8777L124.474 37.1729C124.349 37.5457 123.821 38.7884 121.926 38.7884C121.15 38.7418 119.876 38.3845 119.876 36.5826V25.3981H130.61V36.567C130.61 38.4622 131.247 39.9845 132.443 40.9632C133.406 41.7554 134.726 42.1903 136.155 42.1903C136.311 42.1903 136.683 42.1903 136.777 42.1903H136.808C139.961 42.0505 141.701 40.0311 142.291 38.1826L142.384 37.8874L139.122 36.8622L139.029 37.1573Z" fill="#111D5E"/>
<path d="M235.184 36.8777L235.091 37.1729C234.967 37.5457 234.439 38.7884 232.544 38.7884C231.767 38.7418 230.493 38.3845 230.493 36.5826V25.2428H235.511V22.136H230.493V16.4661H226.672V22.136H222.99V25.2428H226.672V36.5826C226.672 38.4777 227.309 40 228.505 40.9787C229.468 41.7709 230.788 42.2059 232.217 42.2059C232.373 42.2059 232.746 42.2059 232.839 42.2059H232.87C236.023 42.0661 237.763 40.0466 238.353 38.1981L238.447 37.903L235.184 36.8777Z" fill="#111D5E"/>
<path d="M85.53 27.8369C87.565 26.967 89.4601 24.87 89.4601 21.6855C89.4601 19.5884 88.73 17.802 87.3475 16.5127C85.9339 15.2078 83.9456 14.5088 81.5999 14.5088H69.2815V42.0816H81.8795C86.8038 42.0816 89.9883 39.0991 89.9883 34.501C89.9883 31.5496 88.0621 28.7845 85.53 27.8369ZM73.2582 18.1127H81.0252C83.666 18.1127 85.3592 19.6971 85.3592 22.167C85.3592 24.6369 83.697 26.1748 81.0252 26.1748H73.2582V18.1127ZM81.1805 38.4622H73.2427V29.7942H81.1805C83.5262 29.7942 85.8873 31.1301 85.8873 34.1282C85.8873 36.8467 84.132 38.4622 81.1805 38.4622Z" fill="#111D5E"/>
<path d="M101.763 21.0331C98.9669 21.0331 96.4193 22.1515 94.5552 24.1554C92.7377 26.1282 91.728 28.8001 91.728 31.6739C91.728 37.9651 95.9843 42.3612 102.089 42.3612C105.367 42.3612 108.085 41.3205 110.151 39.2544L110.431 38.9748L108.427 36.2253L108.039 36.6137C106.625 38.0583 104.512 38.9282 102.369 38.9282C100.505 38.9282 98.9047 38.2913 97.7241 37.0797C96.73 36.07 96.0775 34.6719 95.8756 33.1341H111.565V31.9069C111.565 28.8933 110.648 26.1593 108.986 24.202C107.215 22.136 104.714 21.0331 101.763 21.0331ZM95.8756 30.0117C96.3106 26.2059 99.1843 24.4661 101.732 24.4661C106.004 24.4661 107.433 27.9302 107.635 30.0117H95.8756Z" fill="#111D5E"/>
<path d="M153.18 21.0331C150.384 21.0331 147.837 22.1515 145.973 24.1554C144.155 26.1282 143.146 28.8001 143.146 31.6739C143.146 37.9651 147.402 42.3612 153.507 42.3612C156.784 42.3612 159.503 41.3205 161.569 39.2544L161.848 38.9748L159.845 36.2408L159.456 36.6292C158.043 38.0739 155.93 38.9438 153.786 38.9438C151.922 38.9438 150.322 38.3069 149.142 37.0952C148.147 36.0855 147.495 34.6875 147.293 33.1496H162.982V31.9224C162.982 28.9088 162.066 26.1748 160.404 24.2175C158.633 22.136 156.132 21.0331 153.18 21.0331ZM147.293 30.0117C147.728 26.2059 150.602 24.4661 153.149 24.4661C157.421 24.4661 158.85 27.9302 159.052 30.0117H147.293Z" fill="#111D5E"/>
<path d="M212.054 21.0331C209.258 21.0331 206.711 22.1515 204.846 24.1554C203.029 26.1282 202.019 28.8001 202.019 31.6739C202.019 37.9651 206.276 42.3612 212.38 42.3612C215.658 42.3612 218.377 41.3205 220.443 39.2544L220.722 38.9748L218.718 36.2408L218.33 36.6292C216.916 38.0739 214.804 38.9438 212.66 38.9438C210.796 38.9438 209.196 38.3069 208.015 37.0952C207.021 36.0855 206.369 34.6875 206.167 33.1496H221.856V31.9224C221.856 28.9088 220.94 26.1748 219.278 24.2175C217.507 22.136 215.006 21.0331 212.054 21.0331ZM206.167 30.0117C206.602 26.2059 209.476 24.4661 212.023 24.4661C216.295 24.4661 217.724 27.9302 217.926 30.0117H206.167Z" fill="#111D5E"/>
</svg>
